<svg xmlns="http://www.w3.org/2000/svg" width="14.626" height="16.641" viewBox="0 0 14.626 16.641">
  <g id="_001-praying" data-name="001-praying" transform="translate(-31)">
    <path id="Path_359" data-name="Path 359" d="M241.975.488a.488.488,0,1,0-.975,0V1.5a.488.488,0,1,0,.975,0Z" transform="translate(-203.174)" fill="#545454"/>
    <path id="Path_360" data-name="Path 360" d="M62.463,181h-.975a.488.488,0,0,0,0,.975h.975a.488.488,0,0,0,0-.975Z" transform="translate(-29.025 -175.117)" fill="#545454"/>
    <path id="Path_361" data-name="Path 361" d="M391.488,181.975h.975a.488.488,0,0,0,0-.975h-.975a.488.488,0,0,0,0,.975Z" transform="translate(-348.299 -175.117)" fill="#545454"/>
    <path id="Path_362" data-name="Path 362" d="M115.243,55.243a.487.487,0,0,0,0-.689l-.691-.691a.487.487,0,1,0-.689.689l.691.691A.487.487,0,0,0,115.243,55.243Z" transform="translate(-80.031 -51.974)" fill="#545454"/>
    <path id="Path_363" data-name="Path 363" d="M347.845,53.863l-.691.691a.487.487,0,0,0,.689.689l.691-.691a.487.487,0,0,0-.689-.689Z" transform="translate(-305.739 -51.974)" fill="#545454"/>
    <path id="Path_364" data-name="Path 364" d="M274.9,101.7V96.941a.479.479,0,0,0-.033-.175l-1.982-5.142a.975.975,0,0,0-1.885.351v3.99a1.446,1.446,0,0,1,.488-.09,1.464,1.464,0,0,1,1.463,1.463v2.438a.488.488,0,0,1-.975,0V97.338a.488.488,0,1,0-.975,0v1.3a10.29,10.29,0,0,0,1.8,5.832.488.488,0,0,0,.4.211h4.135a.487.487,0,0,0,.309-.864Z" transform="translate(-232.199 -88.042)" fill="#545454"/>
    <path id="Path_365" data-name="Path 365" d="M36.851,91a.982.982,0,0,0-.91.624l-1.982,5.142a.479.479,0,0,0-.033.175V101.7l-2.747,2.122a.487.487,0,0,0,.309.864h4.135a.488.488,0,0,0,.4-.211,10.29,10.29,0,0,0,1.8-5.832v-1.3a.488.488,0,1,0-.975,0v2.438a.488.488,0,1,1-.975,0V97.338a1.464,1.464,0,0,1,1.463-1.463,1.445,1.445,0,0,1,.488.09v-3.99A.976.976,0,0,0,36.851,91Z" transform="translate(0 -88.042)" fill="#545454"/>
  </g>
</svg>
