<svg xmlns="http://www.w3.org/2000/svg" width="15.538" height="13.823" viewBox="0 0 15.538 13.823">
  <path id="_002-heart" data-name="002-heart" d="M14.305,1.353A4.178,4.178,0,0,0,11.2,0,3.909,3.909,0,0,0,8.756.843a5,5,0,0,0-.987,1.031A4.992,4.992,0,0,0,6.782.843,3.908,3.908,0,0,0,4.341,0,4.178,4.178,0,0,0,1.233,1.353,4.857,4.857,0,0,0,0,4.67,5.783,5.783,0,0,0,1.542,8.455,32.861,32.861,0,0,0,5.4,12.076c.535.456,1.14.972,1.769,1.522a.912.912,0,0,0,1.2,0c.629-.55,1.235-1.067,1.77-1.523A32.843,32.843,0,0,0,14,8.455a5.783,5.783,0,0,0,1.541-3.786,4.856,4.856,0,0,0-1.233-3.317Zm0,0" transform="translate(0)" fill="#545454"/>
</svg>
