<svg id="Group_13" data-name="Group 13" xmlns="http://www.w3.org/2000/svg" width="14.679" height="14.679" viewBox="0 0 14.679 14.679">
  <path id="Path_321" data-name="Path 321" d="M0,0H14.679V14.679H0Z" fill="none"/>
  <path id="Path_322" data-name="Path 322" d="M16.563,6.281h-.612V5.058a3.058,3.058,0,1,0-6.116,0V6.281H9.223A1.223,1.223,0,0,0,8,7.5v6.116a1.223,1.223,0,0,0,1.223,1.223h7.339a1.223,1.223,0,0,0,1.223-1.223V7.5A1.223,1.223,0,0,0,16.563,6.281Zm-3.67,5.5a1.223,1.223,0,1,1,1.223-1.223A1.223,1.223,0,0,1,12.893,11.786Zm1.9-5.5H11V5.058a1.9,1.9,0,1,1,3.792,0Z" transform="translate(-5.554 -1.388)" fill="#d03d2d"/>
</svg>
