<svg xmlns="http://www.w3.org/2000/svg" width="12.798" height="17.09" viewBox="0 0 12.798 17.09">
  <g id="_004-prayer" data-name="004-prayer" transform="translate(-6.906)">
    <path id="Path_366" data-name="Path 366" d="M31.58,4.972a2.486,2.486,0,1,0-2.486-2.486A2.489,2.489,0,0,0,31.58,4.972Z" transform="translate(-15.294)" fill="#545454"/>
    <path id="Path_367" data-name="Path 367" d="M19.7,17.02a1.429,1.429,0,0,0-.632-1.05,1.5,1.5,0,0,0-1.831.217l-1.125,1.125-.472-.472a2.64,2.64,0,0,0-4.67-2.034L7.485,19.091a2.644,2.644,0,0,0,.41,3.713,2.6,2.6,0,0,0,.855.4,4.4,4.4,0,0,1,1.331.652l.378.276H8.4a1.268,1.268,0,0,0-1.259.994,1.245,1.245,0,0,0,1.218,1.492h5.9a.777.777,0,0,0,.095-.008,1.207,1.207,0,0,0,.128-.014c.03-.006.059-.013.1-.025a1.246,1.246,0,0,0,.137-.044c.02-.008.04-.018.073-.034a1.218,1.218,0,0,0,.145-.08.532.532,0,0,0,.043-.031,1.192,1.192,0,0,0,.15-.125l.04-.043a.981.981,0,0,0,.095-.11l.038-.063a1.239,1.239,0,0,0,.094-.173.481.481,0,0,0,.019-.051,1.235,1.235,0,0,0,.056-.182c0-.022.007-.045.013-.09s.011-.087.013-.131l0-.04a.833.833,0,0,0-.008-.1,1.115,1.115,0,0,0-.013-.115,1.044,1.044,0,0,0-.031-.126,1.06,1.06,0,0,0-.035-.11c-.012-.03-.025-.058-.045-.1a1.193,1.193,0,0,0-.068-.123c-.014-.021-.029-.041-.053-.073a1.268,1.268,0,0,0-.1-.115c-.019-.019-.039-.037-.058-.054l-.028-.025A.68.68,0,0,0,15,24.367l-2.654-1.861a.6.6,0,0,1-.12-.868l1.871-2.3.942.942a1.43,1.43,0,0,0,1.073.411h.066a1.411,1.411,0,0,0,1.006-.413l2.106-2.106A1.42,1.42,0,0,0,19.7,17.02Z" transform="translate(0 -9.526)" fill="#545454"/>
  </g>
</svg>
