<svg xmlns="http://www.w3.org/2000/svg" width="13.616" height="15.492" viewBox="0 0 13.616 15.492">
  <g id="_003-cross" data-name="003-cross" transform="translate(-31 0)">
    <path id="Path_368" data-name="Path 368" d="M110.539,143.354A4.531,4.531,0,0,1,106,138.815V137h1.815v1.815a2.723,2.723,0,1,0,5.446,0V137h1.815v1.815A4.542,4.542,0,0,1,110.539,143.354Z" transform="translate(-72.731 -132.855)" fill="#545454"/>
    <path id="Path_369" data-name="Path 369" d="M196,5.961h.908V7.524a1.839,1.839,0,0,0,.913.253,1.574,1.574,0,0,0,.9-.276V5.961h.908V4.145h-.908V.454A.454.454,0,0,0,198.269,0h-.908a.454.454,0,0,0-.454.454V4.145H196Z" transform="translate(-160.007)" fill="#545454"/>
    <path id="Path_370" data-name="Path 370" d="M436,137v1.815h.908a.454.454,0,0,0,.454-.454v-.908a.454.454,0,0,0-.454-.454Z" transform="translate(-392.746 -132.855)" fill="#545454"/>
    <path id="Path_371" data-name="Path 371" d="M31,137.454v.908a.454.454,0,0,0,.454.454h.908V137h-.908A.454.454,0,0,0,31,137.454Z" transform="translate(0 -132.855)" fill="#545454"/>
    <path id="Path_372" data-name="Path 372" d="M226.908,374.4a5.282,5.282,0,0,1-.908-.081v3.712a.454.454,0,0,0,.454.454h.908a.454.454,0,0,0,.454-.454v-3.712A5.263,5.263,0,0,1,226.908,374.4Z" transform="translate(-189.1 -362.988)" fill="#545454"/>
    <path id="Path_373" data-name="Path 373" d="M346,297.9v2.014a.447.447,0,0,0,.563.441,1.819,1.819,0,0,0,1.253-1.726v-2.445A5.392,5.392,0,0,1,346,297.9Z" transform="translate(-305.469 -287.221)" fill="#545454"/>
    <path id="Path_374" data-name="Path 374" d="M106,296.673V299.1a1.818,1.818,0,0,0,1.253,1.726.447.447,0,0,0,.563-.441v-2.015A5.335,5.335,0,0,1,106,296.673Z" transform="translate(-72.731 -287.696)" fill="#545454"/>
  </g>
</svg>
