<svg xmlns="http://www.w3.org/2000/svg" width="20.983" height="12.98" viewBox="0 0 20.983 12.98">
  <g id="Group_16" data-name="Group 16" opacity="0.2">
    <path id="Path_323" data-name="Path 323" d="M10.989,6.41A12,12,0,0,0,.635,12.393a1.008,1.008,0,0,0,0,1.015,11.952,11.952,0,0,0,20.709,0,1.008,1.008,0,0,0,0-1.015A12,12,0,0,0,10.989,6.41Zm0,10.246A3.756,3.756,0,1,1,14.745,12.9,3.761,3.761,0,0,1,10.989,16.656Z" transform="translate(-0.497 -6.41)"/>
    <circle id="Ellipse_3" data-name="Ellipse 3" cx="1.726" cy="1.726" r="1.726" transform="translate(8.766 4.764)"/>
  </g>
</svg>
