<svg xmlns="http://www.w3.org/2000/svg" width="219.79" height="146.243" viewBox="0 0 219.79 146.243">
  <g id="Succesful_Registration" data-name="Succesful Registration" transform="translate(-0.013 0.004)">
    <path id="Path_324" data-name="Path 324" d="M221.845,140.855c-12.93-.46-25.245-4.633-37-9.19s-23.407-9.628-36.028-12.047c-8.117-1.556-17.4-1.776-23.941,2.575-6.3,4.2-8.329,11.418-9.422,18.127-.823,5.047-1.307,10.357.947,15.082,1.566,3.281,4.343,6.038,6.265,9.18,6.687,10.932,1.96,24.414-5.284,35.089-3.4,5.009-7.342,9.79-9.966,15.116s-3.836,11.438-1.54,16.876c2.274,5.394,7.694,9.438,13.566,12.285,11.925,5.782,25.973,7.438,39.68,8.375,30.334,2.076,60.828,1.177,91.242.278,11.256-.334,22.56-.671,33.633-2.411,6.15-.967,12.5-2.5,16.962-6.2a14.205,14.205,0,0,0,3.273-18.556c-6.369-9.888-23.975-12.343-28.432-22.956-2.449-5.84.066-12.347,3.628-17.763,7.64-11.62,20.444-21.815,21.118-35.1.463-9.122-5.692-18.259-15.21-22.576-9.975-4.525-23.811-3.956-31.167,3.534C246.583,138.274,233.263,141.241,221.845,140.855Z" transform="translate(-93.722 -111.691)" fill="#d03d2d" opacity="0.1"/>
    <ellipse id="Ellipse_508" data-name="Ellipse 508" cx="14.627" cy="2.813" rx="14.627" ry="2.813" transform="translate(19.6 140.613)" fill="#d03d2d"/>
    <ellipse id="Ellipse_509" data-name="Ellipse 509" cx="1.702" cy="2.23" rx="1.702" ry="2.23" transform="translate(32.278 140.002)" fill="#3f3d56"/>
    <ellipse id="Ellipse_510" data-name="Ellipse 510" cx="1.702" cy="2.23" rx="1.702" ry="2.23" transform="translate(32.278 137.277)" fill="#3f3d56"/>
    <ellipse id="Ellipse_511" data-name="Ellipse 511" cx="1.702" cy="2.23" rx="1.702" ry="2.23" transform="translate(32.278 134.552)" fill="#3f3d56"/>
    <ellipse id="Ellipse_512" data-name="Ellipse 512" cx="1.702" cy="2.23" rx="1.702" ry="2.23" transform="translate(32.278 131.828)" fill="#3f3d56"/>
    <ellipse id="Ellipse_513" data-name="Ellipse 513" cx="1.702" cy="2.23" rx="1.702" ry="2.23" transform="translate(32.278 129.103)" fill="#3f3d56"/>
    <ellipse id="Ellipse_514" data-name="Ellipse 514" cx="1.702" cy="2.23" rx="1.702" ry="2.23" transform="translate(32.278 126.378)" fill="#3f3d56"/>
    <ellipse id="Ellipse_515" data-name="Ellipse 515" cx="1.702" cy="2.23" rx="1.702" ry="2.23" transform="translate(32.278 123.653)" fill="#3f3d56"/>
    <path id="Path_325" data-name="Path 325" d="M193.552,567.949a8.086,8.086,0,0,0,.635-.933l-4.475-.735,4.839.036a8.165,8.165,0,0,0,.156-6.463l-6.491,3.369,5.994-4.4a8.157,8.157,0,1,0-13.474,9.128,8.233,8.233,0,0,0-.931,1.488l5.81,3.017-6.193-2.078a8.154,8.154,0,0,0,1.315,7.66,8.157,8.157,0,1,0,12.823,0,8.157,8.157,0,0,0,0-10.087Z" transform="translate(-153.196 -460.712)" fill="#d03d2d"/>
    <path id="Path_326" data-name="Path 326" d="M179,645.521a8.124,8.124,0,0,0,1.746,5.043,8.157,8.157,0,1,0,12.823,0C194.655,649.179,179,644.608,179,645.521Z" transform="translate(-153.204 -533.244)" opacity="0.1"/>
    <path id="Path_327" data-name="Path 327" d="M575.8,607.042a5.661,5.661,0,0,0,2.034,4.2,3.258,3.258,0,0,0,4.344-.342,4.861,4.861,0,0,0,.721-1.568c.833-2.633,1.424-5.514.511-8.121-2.06-.134-4.447-1.1-5.994.6A7.1,7.1,0,0,0,575.8,607.042Z" transform="translate(-470.706 -497.562)" fill="#3f3d56"/>
    <path id="Path_328" data-name="Path 328" d="M581.39,521.554a51,51,0,0,0-.691,6.977c.018.9.114,1.8.116,2.705a13.334,13.334,0,0,1-1.8,6.707,2.251,2.251,0,0,1-.491.635,1.578,1.578,0,0,1-1.718.058,3.379,3.379,0,0,1-1.221-1.325c-1.489-2.549-1.53-5.648-2.12-8.539-.452-2.212-1.243-4.355-1.528-6.593-.186-1.441-.158-2.909-.454-4.332-.09-.43-.342-1.075-.507-1.708a2.569,2.569,0,0,1-.08-1.5c.318-.781,1.359-.477,2.036-.43a46.875,46.875,0,0,0,7.164-.018.616.616,0,0,1,.829.43,9.688,9.688,0,0,1,.434,1.6A17.756,17.756,0,0,1,581.39,521.554Z" transform="translate(-466.738 -428.183)" fill="#fabdbd"/>
    <g id="Group_3763" data-name="Group 3763" transform="translate(104.079 85.927)" opacity="0.1">
      <path id="Path_329" data-name="Path 329" d="M603.93,514.471a1.748,1.748,0,0,0-.37,0c-1.143.092-2.288.138-3.43.144Q602.03,514.619,603.93,514.471Z" transform="translate(-594.277 -514.391)"/>
      <path id="Path_330" data-name="Path 330" d="M577.226,538.637a3.382,3.382,0,0,1-1.221-1.325c-1.488-2.549-1.53-5.648-2.12-8.539-.452-2.212-1.243-4.355-1.528-6.593-.186-1.44-.158-2.909-.454-4.331-.09-.43-.342-1.075-.507-1.708a2.569,2.569,0,0,1-.08-1.5.851.851,0,0,1,.8-.519c-.505-.034-1,.026-1.2.519a2.568,2.568,0,0,0,.08,1.5c.166.633.418,1.279.508,1.708.3,1.423.268,2.891.454,4.331.286,2.24,1.077,4.383,1.528,6.593.589,2.891.631,5.994,2.12,8.539a3.381,3.381,0,0,0,1.221,1.325,1.775,1.775,0,0,0,1.047.212A1.846,1.846,0,0,1,577.226,538.637Z" transform="translate(-570.833 -514.111)"/>
    </g>
    <path id="Path_331" data-name="Path 331" d="M630.767,518.05a13.472,13.472,0,0,0-1,5.794c.2,7.992-3,24.774-3,24.774h-2.8s-.4-18.58,0-20.179-.2-7.192-.8-14.984a40,40,0,0,1,1.419-13.348c.224-.8.38-1.237.38-1.237s4.6-6.793,7.192-3.6a7.955,7.955,0,0,1,1.027,4.138C633.548,505.661,631.686,516.21,630.767,518.05Z" transform="translate(-508.562 -412.426)" fill="#fabdbd"/>
    <path id="Path_332" data-name="Path 332" d="M645.581,499.418a7.91,7.91,0,0,0-1.027-4.138,2.058,2.058,0,0,0-1.962-.833,2.13,2.13,0,0,1,1.363.833,7.955,7.955,0,0,1,1.027,4.138c.356,6.249-1.506,16.8-2.425,18.638a13.471,13.471,0,0,0-1,5.794c.2,7.992-3,24.774-3,24.774h.6s3.2-16.782,3-24.774a13.472,13.472,0,0,1,1-5.794C644.074,516.216,645.936,505.667,645.581,499.418Z" transform="translate(-520.949 -412.432)" opacity="0.1"/>
    <path id="Path_333" data-name="Path 333" d="M617.513,753.181a2.6,2.6,0,0,0-.571.623c-.358.675.15,1.482.693,2.02s1.2,1.113,1.2,1.878a1.872,1.872,0,0,1-.987,1.47c-.28.176-.631.4-.573.731a.689.689,0,0,0,.106.234,3.092,3.092,0,0,0,2.044,1.239,9.217,9.217,0,0,0,2.449.02.494.494,0,0,0,.336-.116.455.455,0,0,0,.09-.276,3.59,3.59,0,0,1,.2-1.253c.26-.521.857-.787,1.2-1.255a2.789,2.789,0,0,0,.232-2.306A9.51,9.51,0,0,0,621.3,751.4C619.758,750.051,618.545,752.208,617.513,753.181Z" transform="translate(-503.554 -617.719)" fill="#3f3d56"/>
    <path id="Path_334" data-name="Path 334" d="M405.04,218.215a5.17,5.17,0,0,0-.314-5.654,9.661,9.661,0,0,0-4.857-3.374,13.672,13.672,0,0,0-7.968-.535,39.137,39.137,0,0,0-5.914,2.549,25.431,25.431,0,0,1-11.044,2.2c-4.218-.118-8.839-1.2-12.377,1.107-6.477,4.214-3.6,15.682-9.724,20.379-1.652,1.267-3.732,1.82-5.57,2.8s-3.58,2.677-3.536,4.759a5.537,5.537,0,0,0,1,2.8,12.944,12.944,0,0,0,10.895,5.854,13.873,13.873,0,0,0,10.978-5.85,8.576,8.576,0,0,1,2.07-2.449c1.8-1.179,4.168-.354,6.313-.178a10.237,10.237,0,0,0,10.507-7.9c.4-2.008.33-4.407,1.946-5.668,1.3-1.017,3.141-.8,4.795-.973a9.807,9.807,0,0,0,7.055-4.659c.753-1.129.841-2.477,1.868-3.366C402.269,219.068,403.981,219.79,405.04,218.215Z" transform="translate(-285.028 -183.457)" fill="#3f3d56"/>
    <g id="Group_3764" data-name="Group 3764" transform="translate(69.695 24.819)" opacity="0.1">
      <path id="Path_335" data-name="Path 335" d="M455.262,232.8a25.327,25.327,0,0,0,5.229-.4c-.476.014-.955.014-1.432,0-3.311-.092-6.869-.775-9.958.048C451.138,232.473,453.246,232.749,455.262,232.8Z" transform="translate(-439.037 -227.297)"/>
      <path id="Path_336" data-name="Path 336" d="M408.686,380.5a8.577,8.577,0,0,0-2.07,2.449,14.035,14.035,0,0,1-7.886,5.436c.234.01.468.016.7.014a13.867,13.867,0,0,0,10.978-5.85,8.577,8.577,0,0,1,2.07-2.449l.156-.1A5.6,5.6,0,0,0,408.686,380.5Z" transform="translate(-398.73 -345.59)"/>
      <path id="Path_337" data-name="Path 337" d="M587.648,212.531a9.7,9.7,0,0,0-4.857-3.374,13.672,13.672,0,0,0-7.968-.535c-.06.014-.118.032-.176.048a15.294,15.294,0,0,1,4.347.887,9.7,9.7,0,0,1,4.857,3.374,5.174,5.174,0,0,1,.314,5.654c-1.059,1.58-2.771.859-3.892,1.832-1.027.889-1.115,2.238-1.868,3.366a10.274,10.274,0,0,1-5.826,4.435c.841-.1,1.728-.088,2.567-.176a9.807,9.807,0,0,0,7.055-4.659c.753-1.129.841-2.477,1.868-3.366,1.121-.973,2.833-.252,3.892-1.832A5.162,5.162,0,0,0,587.648,212.531Z" transform="translate(-537.847 -208.252)"/>
      <path id="Path_338" data-name="Path 338" d="M511.674,309.214c-1.644.172-3.48-.044-4.795.973-1.616,1.261-1.538,3.66-1.946,5.668A10.258,10.258,0,0,1,498,323.337l.238.022a10.237,10.237,0,0,0,10.507-7.9c.4-2.008.33-4.407,1.946-5.668a3.609,3.609,0,0,1,1.241-.6C511.842,309.192,511.76,309.206,511.674,309.214Z" transform="translate(-478.167 -289.024)"/>
    </g>
    <path id="Path_339" data-name="Path 339" d="M515.14,162.932s-4.795,9.59-6.393,13.186-16.183,8.991-18.181,9.19a2.573,2.573,0,0,0-1.427.687,7.859,7.859,0,0,0-1.77,2.709,61.8,61.8,0,0,1-.2,14.385c-.02.174-.038.348-.054.515-.871,8.555.953,10.573.953,10.573s-19.38,7.392-18.78-2.2a43.461,43.461,0,0,0-.026-7.069,29.678,29.678,0,0,0-1.147-5.566c-.474-1.656-1.039-3.472-1.624-5.946a26.077,26.077,0,0,0-1.111-3.626c-.014-.036-.028-.072-.04-.106-1-2.479-2-3.281-2.569-3.54a8.637,8.637,0,0,1-1.534-.863,80.7,80.7,0,0,1-9.336-7.848c-4.795-4.795-9.59-16.183-9.59-16.183s-1.4-6.593,1.8-11.987,1.8,10.589,1.8,10.589,5.794,7.792,7.192,11.388a6.009,6.009,0,0,0,2.8,3.289,33.164,33.164,0,0,1,4.423,2.765,25.829,25.829,0,0,0,2.975,1.942,25.53,25.53,0,0,0,7.138,2.907,6.73,6.73,0,0,0,1.053.09,1.091,1.091,0,0,0,.879-.4c.6-.705.585-2.224.447-3.472a17.64,17.64,0,0,0-.328-1.924s6.493-4.1,6.293.9a5.582,5.582,0,0,0,.152,1.642,2.847,2.847,0,0,0,1.936,2.118,4.8,4.8,0,0,0,2.4.078,2.342,2.342,0,0,0,.707-.242,48.357,48.357,0,0,1,8.391-2.4c1.8-.2,10.789-4.6,10.789-4.6l9.79-13.586s-.2-7.992,3.8-11.188S515.14,162.932,515.14,162.932Z" transform="translate(-363.665 -135.326)" fill="#fabdbd"/>
    <g id="Group_3765" data-name="Group 3765" transform="translate(78.338 14.278)" opacity="0.1">
      <path id="Path_340" data-name="Path 340" d="M666.856,385.4a39.829,39.829,0,0,0-.23,4.835c.02-1.055.09-2.26.23-3.636.016-.168.034-.342.054-.516a78.357,78.357,0,0,0,.5-9.268,80.264,80.264,0,0,1-.5,8.07C666.9,385.053,666.872,385.227,666.856,385.4Z" transform="translate(-621.743 -332.593)"/>
      <path id="Path_341" data-name="Path 341" d="M594.8,289.07c-.134.078-.2.126-.2.126a17.117,17.117,0,0,1,.384,2.6,12.253,12.253,0,0,0-.184-2.723Z" transform="translate(-564.11 -262.382)"/>
      <path id="Path_342" data-name="Path 342" d="M461.664,176.7c.1-1.4.244-3.906.216-6.136-.034,2.981-.3,6.022-.3,6.022Z" transform="translate(-457.666 -167.549)"/>
      <path id="Path_343" data-name="Path 343" d="M578.519,466.53a1.312,1.312,0,0,1-.014.234c-.6,9.59,18.78,2.2,18.78,2.2a3.25,3.25,0,0,1-.505-1.015C593.861,468.985,579.193,473.816,578.519,466.53Z" transform="translate(-551.22 -404.387)"/>
      <path id="Path_344" data-name="Path 344" d="M696.831,167.619s-4.795,9.59-6.393,13.186S674.255,189.8,672.257,190a2.573,2.573,0,0,0-1.427.687,7.858,7.858,0,0,0-1.77,2.709s.048.326.106.945a7.428,7.428,0,0,1,1.664-2.455,2.573,2.573,0,0,1,1.427-.687c2-.2,16.583-5.594,18.181-9.19s6.393-13.186,6.393-13.186,3.379-10.259,3.007-13.328C699.53,159.422,696.831,167.619,696.831,167.619Z" transform="translate(-623.694 -155.49)"/>
      <path id="Path_345" data-name="Path 345" d="M469.249,239.711a29.685,29.685,0,0,0-1.147-5.566c-.474-1.656-1.039-3.472-1.624-5.946a26.086,26.086,0,0,0-1.111-3.626c-.014-.036-.028-.072-.04-.106-1-2.479-2-3.281-2.569-3.54a8.636,8.636,0,0,1-1.534-.863,80.708,80.708,0,0,1-9.336-7.848c-4.795-4.795-9.59-16.183-9.59-16.183a18.055,18.055,0,0,1-.3-2.913,19.256,19.256,0,0,0,.3,4.112s4.795,11.388,9.59,16.183a80.707,80.707,0,0,0,9.336,7.848,8.636,8.636,0,0,0,1.546.863c.569.26,1.566,1.061,2.569,3.54.012.034.026.07.04.106a26.074,26.074,0,0,1,1.1,3.626c.585,2.473,1.151,4.289,1.624,5.946a29.681,29.681,0,0,1,1.147,5.566c.084.835.134,1.744.148,2.767A34.8,34.8,0,0,0,469.249,239.711Z" transform="translate(-441.99 -185.602)"/>
    </g>
    <path id="Path_346" data-name="Path 346" d="M582.349,327.049a11.9,11.9,0,0,0-.8,1.574,9.508,9.508,0,0,0-.36,2.641,21.212,21.212,0,0,1-.567,3.7,4.093,4.093,0,0,1-.2.655,1.734,1.734,0,0,1-.234.4,1.7,1.7,0,0,1-.372.338,4.354,4.354,0,0,1-.677.37c-2.781,1.3-5.814,2.445-8.849,2a12.875,12.875,0,0,1-3.682-1.239c-1.1-.533-2.342-1.167-3.48-.723h0a1.751,1.751,0,0,1-.557.174.529.529,0,0,1-.112-.01c-.376-.072-.376-1.339-.461-1.712-.328-1.435-.378-2.6-.573-3.844a12.613,12.613,0,0,0-.482-2.032,23.992,23.992,0,0,1-1.041-7.528c0-.126-.9,0-1.2-.012-.076,0-.118-.012-.1-.038a.4.4,0,0,1,.06-.068.914.914,0,0,1,.358-.178l.236-.07c1.235-.35,2.6-.5,3.52-1.365a4.707,4.707,0,0,0,1.157-3.64,21.7,21.7,0,0,1-.184-2.294,6.735,6.735,0,0,0,1.053.09,1.091,1.091,0,0,0,.879-.4,15.785,15.785,0,0,1,.863,2,13.812,13.812,0,0,0,1.1,2.469,4.182,4.182,0,0,0,3.74,1.916,3.474,3.474,0,0,0,3.093-2.7c.23-1.269-.3-3.095-.292-4.413a4.8,4.8,0,0,0,2.4.078,2.169,2.169,0,0,1,.086.25c.45,1.542,1.049,3.312,2.557,3.86.975.352,2.128.088,3.029.6a1.954,1.954,0,0,1,.2.132,2.213,2.213,0,0,1,.529.561,4.515,4.515,0,0,1,.641,2.014A11.173,11.173,0,0,1,582.349,327.049Z" transform="translate(-456.964 -267.341)" fill="#d03d2d"/>
    <path id="Path_347" data-name="Path 347" d="M601.005,285.911a6.809,6.809,0,0,1-6.118-.617,17.662,17.662,0,0,0-.328-1.924s6.493-4.1,6.293.9A5.583,5.583,0,0,0,601.005,285.911Z" transform="translate(-485.74 -242.278)" opacity="0.1"/>
    <circle id="Ellipse_516" data-name="Ellipse 516" cx="6.793" cy="6.793" r="6.793" transform="translate(106.021 30.103)" fill="#fabdbd"/>
    <path id="Path_348" data-name="Path 348" d="M555.06,338.949s13.186-8.391,54.143.6,64.732,1.8,64.732,1.8v9.39s-45.952,4.995-63.533,0-42.609-7.876-51.374-.142Z" transform="translate(-454.132 -285.171)" fill="#f86d70"/>
    <path id="Path_349" data-name="Path 349" d="M555.06,338.949s13.186-8.391,54.143.6,64.732,1.8,64.732,1.8v9.39s-45.952,4.995-63.533,0-42.609-7.876-51.374-.142Z" transform="translate(-454.132 -285.171)" opacity="0.1"/>
    <path id="Path_350" data-name="Path 350" d="M557.06,340.949s12.786-8.391,53.743.6,64.332,1.8,64.332,1.8l.2,8.591s-45.552,4.995-63.134,0-42.409-8.475-51.174-.741Z" transform="translate(-455.732 -286.771)" fill="#f86d70"/>
    <path id="Path_351" data-name="Path 351" d="M160.039,363.7s-13.186,8.391-54.143-.6-38.959-1.8-38.959-1.8v-9.39s20.179-4.995,37.76,0,42.609,7.876,51.374.142Z" transform="translate(-63.518 -296.612)" fill="#f86d70"/>
    <path id="Path_352" data-name="Path 352" d="M160.039,363.7s-13.186,8.391-54.143-.6-38.959-1.8-38.959-1.8v-9.39s20.179-4.995,37.76,0,42.609,7.876,51.374.142Z" transform="translate(-63.518 -296.612)" opacity="0.1"/>
    <path id="Path_353" data-name="Path 353" d="M160.5,364.9s-12.787,8.391-53.743-.6S68.2,362.5,68.2,362.5l-.2-8.591s19.779-4.995,37.361,0,42.409,8.475,51.174.741Z" transform="translate(-64.382 -298.212)" fill="#f86d70"/>
    <path id="Path_354" data-name="Path 354" d="M559.764,230.443c-.2-1.247-.507-2.817.535-3.53a2.218,2.218,0,0,1,1.237-.32c2.16-.022,4.224,1.482,6.341,1.043a3.574,3.574,0,0,0,1.4-6.367,7.182,7.182,0,0,0-2.9-1.053c-2.679-.551-5.476-1.1-8.122-.4s-5.063,3.073-4.851,5.794a8.184,8.184,0,0,0,1.456,3.6c.528.843,2.581,4.795,3.578,4.855C559.839,234.143,559.9,231.258,559.764,230.443Z" transform="translate(-452.792 -192.421)" fill="#3f3d56"/>
    <path id="Path_355" data-name="Path 355" d="M589.89,461.7s-13.786,3.4-18.381,0c0,0-2,7.792-1.4,11.788,0,0,9.79.6,10.789,1.2,0,0,.2-1.6,1.2-.8,0,0,3.4-4,9.59-.4C591.688,473.488,592.887,464.1,589.89,461.7Z" transform="translate(-466.086 -386.244)" fill="#d03d2d"/>
    <path id="Path_356" data-name="Path 356" d="M585.416,227.29a3.969,3.969,0,0,0-.445-.28,3.566,3.566,0,0,1-1.956,5.848c-2.118.44-4.182-1.065-6.341-1.043a2.218,2.218,0,0,0-1.237.32c-1.043.713-.737,2.284-.537,3.53.132.815.078,3.7-1.325,3.622h-.024c.385.47.745.787,1.023.8,1.4.078,1.456-2.8,1.325-3.622-.2-1.247-.505-2.817.537-3.53a2.218,2.218,0,0,1,1.237-.32c2.16-.022,4.224,1.482,6.341,1.043a3.574,3.574,0,0,0,1.4-6.367Z" transform="translate(-468.928 -198.443)" opacity="0.1"/>
    <g id="Group_3766" data-name="Group 3766" transform="translate(0.013 17.62)" opacity="0.1">
      <path id="Path_357" data-name="Path 357" d="M67.2,173.953s-14.938-6.281-16.9,5.047a2.755,2.755,0,0,0,.4,3.223s.306-.781,1.75.028a7.512,7.512,0,0,0,1.63.661,3.668,3.668,0,0,0,2.322-.124h0s4.913-.266,9.044-6.693c0,0,1.77-1.095,1.86-1.5l-2.961.2a4.926,4.926,0,0,1-1,3.468s1.089-3.362.565-3.458c-.106-.02-1.564.174-1.564.174s.378,3.768-1.6,5.718c0,0,1.834-3.834,1.035-5.65l-2.184.422s.6,3.964-1.562,6.271c0,0,1.776-4.076,1.091-6.148l-2.094.7s.505,3.88-1.3,5.794c0,0,1.578-4.917.835-5.594a10.942,10.942,0,0,0-2.286,1.2s.3,2.8-.851,3.8c0,0,.707-3.4.358-3.536a11.406,11.406,0,0,0-2.853,3.067,8.293,8.293,0,0,1,2.577-3.4,4.6,4.6,0,0,0-2.6.366s.757-1.44,3.127-.757a10.387,10.387,0,0,1,2.108-1.2,10.1,10.1,0,0,0-3.862-.877s1.736-1,4.411.671l2.086-.755s-2.895-1.484-4.347-1.478c0,0,1.93-.745,4.891,1.333l2.136-.438a17,17,0,0,0-4.014-1.81s1.94-.306,4.631,1.71l1.462-.124s-1.77-1.041-2.306-1.295-.511-.42-.511-.42a6.972,6.972,0,0,1,3.43,1.65A16.863,16.863,0,0,0,67.2,173.953Z" transform="translate(-49.953 -172.217)" fill="#d03d2d"/>
    </g>
    <g id="Group_3767" data-name="Group 3767" transform="translate(2.202 -0.004)" opacity="0.1">
      <path id="Path_358" data-name="Path 358" d="M75.42,92.107s-5.3-12.241-12.912-6.627a2.266,2.266,0,0,0-1.6,2.138s.627-.29,1.023,1.013a6.272,6.272,0,0,0,.6,1.323A3,3,0,0,0,63.968,91.2h0s3.069,2.641,9.19,1.177c0,0,1.676.36,1.964.166l-1.872-1.57a4.029,4.029,0,0,1-2.573,1.486s2.563-1.379,2.306-1.734c-.052-.072-1.027-.787-1.027-.787s-1.924,2.453-4.2,2.491c0,0,3.275-1.235,3.834-2.767l-1.536-1s-1.906,2.7-4.5,2.835c0,0,3.376-1.4,4.15-3.029l-1.644-.775s-1.91,2.6-4.07,2.7c0,0,3.738-2.022,3.68-2.847a8.682,8.682,0,0,0-2.044-.583s-1.413,1.828-2.673,1.776c0,0,2.356-1.616,2.226-1.9a9.357,9.357,0,0,0-3.442.2,6.818,6.818,0,0,1,3.466-.547,3.745,3.745,0,0,0-1.746-1.259s1.271-.426,2.29,1.331a8.665,8.665,0,0,1,1.936.485,8.171,8.171,0,0,0-1.8-2.721s1.6.4,2.238,2.911l1.668.741a11.47,11.47,0,0,0-1.75-3.352s1.572.655,2.148,3.576l1.516.957A13.928,13.928,0,0,0,70.354,85.8s1.327.921,1.778,3.652l.939.759s-.46-1.626-.633-2.082-.064-.539-.064-.539a5.756,5.756,0,0,1,1.1,2.935A14.143,14.143,0,0,0,75.42,92.107Z" transform="translate(-60.91 -84.006)" fill="#d03d2d"/>
    </g>
  </g>
</svg>
